<svg width="290" height="290" xmlns="http://www.w3.org/2000/svg" xmlns:xlink="http://www.w3.org/1999/xlink" viewBox="0 0 72 72"><defs><style>.cls-1{fill:#ff9320;}.cls-2{filter:url(#outer-glow-1);}</style><filter id="outer-glow-1" filterUnits="userSpaceOnUse"><feOffset dx="0" dy="0"/><feGaussianBlur result="blur" stdDeviation="2"/><feFlood flood-color="#000" flood-opacity=".15"/><feComposite in2="blur" operator="in"/><feComposite in="SourceGraphic"/></filter></defs><g class="cls-2"><path class="cls-1" d="M46.86,36.1l-6.79,3.52v.56h6.79v5.43H25.14v-5.43h6.79v-.59l-6.79-3.48v-6.79l10.86,5.83,10.86-5.83"/><path class="cls-1" d="M60.7,44.87V27.13c1.98-.64,3.43-2.48,3.43-4.67,0-2.72-2.21-4.93-4.93-4.93-1.27,0-2.41,.49-3.28,1.28l-15.11-8.81c.08-.34,.12-.7,.12-1.07,0-2.72-2.21-4.93-4.93-4.93s-4.93,2.21-4.93,4.93c0,.37,.05,.72,.12,1.07l-15.11,8.81c-.87-.79-2.02-1.28-3.28-1.28-2.72,0-4.93,2.21-4.93,4.93,0,2.2,1.45,4.04,3.43,4.67v17.73c-1.98,.64-3.43,2.48-3.43,4.67,0,2.72,2.21,4.93,4.93,4.93,1.27,0,2.41-.49,3.28-1.28l15.11,8.81c-.08,.34-.12,.7-.12,1.07,0,2.72,2.21,4.93,4.93,4.93s4.93-2.21,4.93-4.93c0-.37-.05-.72-.12-1.07l15.11-8.81c.87,.79,2.02,1.28,3.28,1.28,2.72,0,4.93-2.21,4.93-4.93,0-2.2-1.45-4.03-3.43-4.67Zm-6.43,4.67c0,.37,.05,.72,.12,1.07l-15.11,8.81c-.87-.79-2.02-1.28-3.28-1.28s-2.41,.49-3.28,1.28l-15.11-8.81c.08-.34,.12-.7,.12-1.07,0-2.2-1.45-4.03-3.43-4.67V27.13c1.98-.64,3.43-2.48,3.43-4.67,0-.37-.05-.72-.12-1.07l15.11-8.81c.87,.79,2.02,1.28,3.28,1.28s2.41-.49,3.28-1.28l15.11,8.81c-.08,.34-.12,.7-.12,1.07,0,2.2,1.45,4.04,3.43,4.67v17.73c-1.98,.64-3.43,2.48-3.43,4.67Z"/></g></svg>
